<svg width="17" height="16" viewBox="0 0 17 16" fill="none" xmlns="http://www.w3.org/2000/svg">
<path fill-rule="evenodd" clip-rule="evenodd" d="M0 8.00004C0 7.73483 0.105357 7.48047 0.292893 7.29294C0.48043 7.1054 0.734784 7.00004 1 7.00004H12.586L8.292 2.70804C8.10423 2.52027 7.99874 2.26559 7.99874 2.00004C7.99874 1.73449 8.10423 1.47982 8.292 1.29204C8.47977 1.10427 8.73445 0.998779 9 0.998779C9.26555 0.998779 9.52023 1.10427 9.708 1.29204L15.708 7.29204C15.8011 7.38493 15.875 7.49528 15.9254 7.61678C15.9758 7.73827 16.0018 7.86851 16.0018 8.00004C16.0018 8.13158 15.9758 8.26182 15.9254 8.38331C15.875 8.5048 15.8011 8.61515 15.708 8.70804L9.708 14.708C9.52023 14.8958 9.26555 15.0013 9 15.0013C8.73445 15.0013 8.47977 14.8958 8.292 14.708C8.10423 14.5203 7.99874 14.2656 7.99874 14C7.99874 13.7345 8.10423 13.4798 8.292 13.292L12.586 9.00004H1C0.734784 9.00004 0.48043 8.89469 0.292893 8.70715C0.105357 8.51961 0 8.26526 0 8.00004Z" fill="#30475E"/>
</svg>
