<svg width="32" height="32" viewBox="0 0 32 32" fill="none" xmlns="http://www.w3.org/2000/svg">
<path d="M2.43054 0.173439L31.0356 14.4075C31.3244 14.5513 31.5682 14.7771 31.7388 15.0589C31.9095 15.3407 32 15.667 32 16C32 16.333 31.9095 16.6593 31.7388 16.9411C31.5682 17.2229 31.3244 17.4487 31.0356 17.5925L2.43054 31.8266C2.13718 31.9728 1.80958 32.0283 1.48676 31.9864C1.16394 31.9445 0.859516 31.8069 0.609737 31.59C0.359957 31.3732 0.175353 31.0862 0.0779117 30.7633C-0.0195298 30.4404 -0.0257018 30.0952 0.0601308 29.7687L2.922 18.8537C2.95703 18.72 3.02914 18.5999 3.12933 18.5085C3.22952 18.417 3.35336 18.3583 3.48541 18.3396L17.3467 16.3806C17.4045 16.3722 17.4593 16.3484 17.5056 16.3115C17.552 16.2747 17.5885 16.226 17.6115 16.1702L17.6359 16.0812C17.6466 16.0024 17.6314 15.9221 17.5927 15.8533C17.554 15.7846 17.4941 15.7315 17.4228 15.7027L17.3481 15.6815L3.50035 13.7239C3.36854 13.705 3.24499 13.6461 3.14506 13.5547C3.04513 13.4633 2.97323 13.3434 2.93829 13.2098L0.0601308 2.23129C-0.0257018 1.90484 -0.0195298 1.5596 0.0779117 1.23669C0.175353 0.913779 0.359957 0.626812 0.609737 0.409968C0.859516 0.193124 1.16394 0.0555405 1.48676 0.0136056C1.80958 -0.0283294 2.13718 0.0271513 2.43054 0.173439V0.173439Z" fill="#BBBBBB"/>
</svg>
